<svg width="32" height="32" viewBox="0 0 32 32" fill="none" xmlns="http://www.w3.org/2000/svg">
<g clip-path="url(#clip0_231_58)">
<path d="M19.2909 -10.6359C25.7487 -14.3643 34.0064 -12.1517 37.7349 -5.69381L40.3593 -1.14816C44.0878 5.30973 41.8751 13.5674 35.4172 17.2959V17.2959C28.9594 21.0243 20.7017 18.8117 16.9733 12.3538L14.3488 7.80814C10.6204 1.35025 12.833 -6.90741 19.2909 -10.6359V-10.6359Z" fill="#FAF1F1"/>
<path d="M2.11365 12.2891C7.47155 9.19569 14.3289 11.4273 16.84 17.0816L20.8471 26.1043C23.0092 30.9728 21.1492 36.688 16.5359 39.3515V39.3515C11.178 42.4449 4.3207 40.2132 1.8096 34.559L-2.19747 25.5363C-4.3596 20.6678 -2.49965 14.9526 2.11365 12.2891V12.2891Z" fill="#DBF6FF"/>
</g>
<defs>
<clipPath id="clip0_231_58">
<rect width="32" height="32" fill="white"/>
</clipPath>
</defs>
</svg>
